<svg width="19" height="19" viewBox="0 0 19 19" fill="none" xmlns="http://www.w3.org/2000/svg">
<path d="M17.6667 8.93664V9.68229C17.6657 11.4301 17.0838 13.1307 16.0078 14.5305C14.9318 15.9303 13.4194 16.9544 11.6961 17.45C9.97287 17.9455 8.13106 17.886 6.4454 17.2803C4.75974 16.6746 3.32055 15.5552 2.34247 14.089C1.36439 12.6228 0.899826 10.8884 1.01806 9.14438C1.1363 7.40041 1.83101 5.74033 2.99857 4.41174C4.16613 3.08314 5.74399 2.1572 7.49683 1.77203C9.24967 1.38685 11.0836 1.56308 12.725 2.27441" stroke="black" stroke-width="2" stroke-linecap="round" stroke-linejoin="round"/>
<mask id="mask0_157_5" style="mask-type:alpha" maskUnits="userSpaceOnUse" x="5" y="2" width="14" height="11">
<path d="M17.6667 3.19824L9.33337 11.3113L6.83337 8.87979" stroke="black" stroke-width="2" stroke-linecap="round" stroke-linejoin="round"/>
</mask>
<g mask="url(#mask0_157_5)">
<rect x="-4" width="29" height="31" fill="#3546E1"/>
</g>
</svg>
