<svg width="1197" height="521" viewBox="0 0 1197 521" fill="none" xmlns="http://www.w3.org/2000/svg">
<g clip-path="url(#clip0_20_2)">
<path opacity="0.1" d="M78.3435 160.98H182.378V296.766H85.9503C85.7043 298.17 85.4582 299.563 85.1814 300.967H182.378V410.456C182.214 410.456 182.05 410.338 181.896 410.279C179.162 409.238 176.429 408.136 173.695 406.971C173.11 406.716 172.536 406.451 171.942 406.205C169.208 404.968 166.474 403.66 163.74 402.279C162.787 401.798 161.833 401.297 160.901 400.787C145.724 392.678 131.93 382.396 119.996 370.298C119.637 369.974 119.309 369.621 118.971 369.316C117.31 367.589 115.68 365.842 114.102 364.055C113.507 363.397 112.933 362.73 112.348 362.092C110.483 359.913 108.678 357.655 106.936 355.387C106.669 355.044 106.423 354.71 106.167 354.406C99.0274 344.946 93.1069 334.696 88.5337 323.878C88.3902 323.554 88.2569 323.201 88.1237 322.896C86.7089 319.461 85.4275 315.976 84.3203 312.422C83.8487 310.94 83.3874 309.478 82.9978 307.937C82.8543 307.495 82.7415 307.043 82.6185 306.602C76.857 284.859 76.1907 262.262 76.1907 239.774C76.1907 237.156 76.1907 234.538 76.1907 231.921C76.2727 222.739 76.3855 213.568 76.529 204.406C76.5837 202.05 76.6349 199.685 76.6828 197.309C76.8263 191.295 77.0313 185.268 77.2979 179.228C77.3594 177.559 77.4414 175.881 77.5337 174.222C77.5747 173.26 77.6259 172.298 77.6874 171.336C77.872 167.861 78.0907 164.409 78.3435 160.98Z" fill="#6C63FF"/>
<path opacity="0.1" d="M182.378 9.79241H125.307C134.588 -4.10229 144.724 -17.4561 155.662 -30.1983C164.15 -40.1714 173.09 -49.8894 182.378 -59.2539V9.79241Z" fill="#6C63FF"/>
<path opacity="0.1" d="M182.378 13.9741V156.778H78.6716C78.6716 156.366 78.7331 155.944 78.7741 155.532C78.8664 154.403 78.9587 153.284 79.0612 152.155C79.1637 150.84 79.297 149.524 79.4303 148.229C79.5635 146.933 79.6968 145.362 79.8608 143.939C80.0249 142.516 80.1581 141.073 80.3222 139.649C80.4862 138.226 80.6502 136.803 80.8347 135.389C81.0193 133.976 81.1833 132.543 81.3883 131.129C81.5421 129.961 81.6959 128.783 81.8702 127.605C82.1059 125.946 82.352 124.287 82.6083 122.638C82.6083 122.383 82.6903 122.138 82.7313 121.892C84.6049 109.821 87.151 97.8546 90.3586 86.0438C93.727 73.6561 98.0268 61.5179 103.224 49.7243C108.747 37.3672 115.217 25.4179 122.58 13.9741H182.378Z" fill="#6C63FF"/>
<path opacity="0.1" d="M207.228 160.98V296.765H429.444V160.98H207.228ZM207.228 300.967V417.582C208.499 417.827 209.75 418.073 211.011 418.279C212.702 418.593 214.404 418.877 216.137 419.123L217.162 419.26C217.839 419.368 218.525 419.457 219.212 419.535C220.924 419.771 222.636 419.947 224.338 420.104C225.138 420.183 225.968 420.242 226.778 420.311L228.757 420.448C229.833 420.527 230.899 420.585 231.965 420.625C232.622 420.625 233.278 420.674 233.944 420.693C234.61 420.713 234.969 420.693 235.502 420.693H237.44C238.321 420.693 239.203 420.693 240.075 420.693H241.202C242.084 420.693 242.965 420.693 243.837 420.615H243.888C244.503 420.615 245.108 420.615 245.723 420.546C245.897 420.556 246.072 420.556 246.246 420.546C246.759 420.546 247.271 420.546 247.763 420.487C247.879 420.478 247.996 420.478 248.112 420.487C249.25 420.419 250.398 420.33 251.556 420.232C252.715 420.134 253.812 420.016 254.97 419.898L257.297 419.623C266.807 418.349 276.21 416.433 285.438 413.891C306.178 408.355 326.445 400.61 347.174 394.946C373.952 387.633 403.559 384.03 429.434 392.934V300.967H207.228ZM429.444 9.79239V-170.981C405.118 -171.237 380.857 -168.515 357.252 -162.882C300.98 -149.346 250.449 -119.986 207.228 -82.4886V9.78256H218.413V13.974H207.228V156.778H429.444V13.974H264.166V9.77275L429.444 9.79239ZM714.934 -51.2734C701.012 -51.7446 687.172 -55.9557 674.645 -62.4834C650.717 -74.94 631.587 -94.1992 610.223 -110.435C565.833 -144.271 510.781 -164.698 454.305 -169.763V9.79239H771.503L772.292 8.99727L714.934 -51.2734ZM743.833 -56.1815L774.476 -23.9749V-64.6528C764.162 -63.4061 755.182 -60.5104 743.833 -56.2207V-56.1815ZM774.476 446.539V300.967H709.131C708.967 300.348 708.783 299.72 708.578 299.092C708.772 299.72 708.947 300.348 709.121 300.967H454.305V406.234C456.724 407.952 459.113 409.768 461.481 411.594C464.037 413.596 466.576 415.622 469.098 417.67L471.64 419.682C472.86 420.664 474.101 421.646 475.331 422.578C477.798 424.482 480.282 426.367 482.784 428.232C484.034 429.174 485.292 430.1 486.556 431.01C506.58 445.663 527.701 458.888 549.748 470.579C554.689 473.219 559.682 475.762 564.705 478.245C568.047 479.894 571.413 481.51 574.803 483.094C579.888 485.47 585.014 487.76 590.181 489.965C637.816 510.44 688.188 524.486 739.856 531.703C751.324 533.32 762.843 534.596 774.414 535.532V446.52H775.439L774.476 446.539ZM454.305 13.974V156.778H774.476V13.974H454.305ZM454.305 160.96V296.765H774.476V160.98L454.305 160.96ZM799.326 -64.8491V-19.4006L838.426 -60.5005C825.468 -62.5488 812.434 -63.9984 799.326 -64.8491ZM799.326 160.98V296.765H1110.72V160.98H799.326ZM1109.62 457.307L1110.72 300.967H799.326V537.112C819.384 537.911 839.472 537.678 859.503 536.415H859.852C869.42 535.826 878.944 534.989 888.423 533.902H888.639C939.226 528.264 988.689 515.613 1035.47 496.346L1109.62 457.307ZM1170.8 183.282C1169.61 180.664 1168.4 178.047 1167.16 175.429C1164.84 170.521 1162.4 165.75 1159.88 160.989H1135.58V296.765H1197C1196.95 258.306 1186.78 219.042 1170.8 183.282ZM1135.58 300.967V435.447C1152.88 419.574 1167.51 401.405 1178.02 380.634C1190.68 355.613 1196.48 328.54 1196.96 300.957L1135.58 300.967ZM1135.58 121.411V156.749H1157.6C1150.93 144.601 1143.58 132.805 1135.58 121.411ZM924.397 -38.1984C922.777 -38.7972 921.147 -39.396 919.517 -39.9653C902.33 -46.0473 884.766 -51.1024 866.926 -55.1017L807.076 7.78009L805.907 8.98746L806.676 9.78256H1019.69C990.018 -9.76508 958.031 -25.8714 924.397 -38.1984ZM1025.94 13.974H803.693L799.326 17.7925V156.778H837.616H1110.72V89.44C1086.03 60.8452 1057.52 35.4737 1025.94 13.974Z" fill="#6C63FF"/>
<path opacity="0.1" d="M182.378 86.0146V156.779H78.6716C78.6716 156.367 78.7331 155.944 78.7741 155.532C78.8664 154.403 78.9587 153.284 79.0612 152.155C79.1637 150.84 79.297 149.525 79.4303 148.229C79.5635 146.933 79.6968 145.363 79.8608 143.939C80.0249 142.516 80.1581 141.073 80.3222 139.65C80.4862 138.226 80.6502 136.803 80.8347 135.39C81.0193 133.976 81.1833 132.543 81.3883 131.129C81.5421 129.961 81.6959 128.783 81.8702 127.605C82.1059 125.946 82.352 124.288 82.6083 122.638C82.6083 122.383 82.6903 122.138 82.7313 121.892C84.6049 109.821 87.151 97.8549 90.3586 86.0441L182.378 86.0146Z" fill="#6C63FF"/>
<path opacity="0.1" d="M78.3435 160.98H182.378V296.766H85.9503C85.7043 298.17 85.4582 299.563 85.1814 300.967H182.378V410.456C182.214 410.456 182.05 410.338 181.896 410.279C179.162 409.238 176.429 408.136 173.695 406.971C173.11 406.716 172.536 406.451 171.942 406.205C169.208 404.968 166.474 403.66 163.74 402.279C162.787 401.798 161.833 401.297 160.901 400.787C145.724 392.678 131.93 382.396 119.996 370.298C119.637 369.974 119.309 369.621 118.971 369.316C117.31 367.589 115.68 365.842 114.102 364.055C113.507 363.397 112.933 362.73 112.348 362.092C110.483 359.913 108.678 357.655 106.936 355.387C106.669 355.044 106.423 354.71 106.167 354.406C99.0274 344.946 93.1069 334.696 88.5337 323.878C88.3902 323.554 88.2569 323.201 88.1237 322.896C86.7089 319.461 85.4275 315.976 84.3203 312.422C83.8487 310.94 83.3874 309.478 82.9978 307.937C82.8543 307.495 82.7415 307.043 82.6185 306.602C76.857 284.859 76.1907 262.262 76.1907 239.774C76.1907 237.156 76.1907 234.538 76.1907 231.921C76.2727 222.739 76.3855 213.568 76.529 204.406C76.5837 202.05 76.6349 199.685 76.6828 197.309C76.8263 191.295 77.0313 185.268 77.2979 179.228C77.3594 177.559 77.4414 175.881 77.5337 174.222C77.5747 173.26 77.6259 172.298 77.6874 171.336C77.872 167.861 78.0907 164.409 78.3435 160.98Z" fill="#6C63FF"/>
<path opacity="0.1" d="M285.449 34.4307V156.778H207.218V34.4307H218.372V-6.99316H264.156V34.4307H285.449Z" fill="#6C63FF"/>
<path opacity="0.1" d="M285.438 160.97H207.218V296.756H285.438V160.97Z" fill="#6C63FF"/>
<path opacity="0.1" d="M207.228 300.967H285.449V413.852C276.222 416.395 266.818 418.308 257.308 419.575C256.528 419.683 255.76 419.771 254.98 419.849C253.832 419.977 252.694 420.095 251.556 420.193L248.122 420.458H247.774L246.256 420.536H245.733C245.118 420.536 244.513 420.605 243.898 420.615H243.847C242.965 420.615 242.094 420.674 241.212 420.694H240.085C239.213 420.694 238.342 420.694 237.45 420.694H235.523H233.954C233.288 420.694 232.632 420.694 231.965 420.615C230.913 420.576 229.847 420.517 228.767 420.438L226.788 420.301C225.968 420.242 225.148 420.163 224.338 420.085C222.616 419.941 220.907 419.755 219.212 419.525L217.162 419.251L216.137 419.113C214.425 418.868 212.723 418.593 211.011 418.279C209.74 418.063 208.489 417.817 207.228 417.562V300.967Z" fill="#6C63FF"/>
<path opacity="0.1" d="M774.465 19.9814H709.962V156.769H774.465V19.9814Z" fill="#6C63FF"/>
<path opacity="0.1" d="M774.476 160.97V296.766H454.305V238.193H624.842V272.746H709.962V160.97H774.476Z" fill="#6C63FF"/>
<path opacity="0.1" d="M775.491 446.569C775.152 446.569 774.814 446.569 774.466 446.51V535.591C762.908 534.681 751.392 533.408 739.917 531.772C688.232 524.558 637.84 510.518 590.181 490.054C576.423 484.112 562.945 477.636 549.748 470.628C527.708 458.931 506.591 445.707 486.567 431.059C481.523 427.368 476.554 423.596 471.661 419.741C468.267 417.052 464.905 414.303 461.481 411.643C459.123 409.807 456.734 407.991 454.305 406.264V300.967H709.121C708.937 300.338 708.773 299.72 708.588 299.092C708.783 299.72 708.967 300.338 709.131 300.967H774.476V446.5C774.814 446.51 775.152 446.539 775.491 446.569Z" fill="#6C63FF"/>
<path opacity="0.1" d="M942.706 9.79237H900.674V-2.71332H919.507V-39.9653C921.14 -39.3895 922.767 -38.8005 924.387 -38.1984V-2.71332H942.696L942.706 9.79237Z" fill="#6C63FF"/>
<path opacity="0.1" d="M1043.98 156.778H837.616C837.636 156.783 837.657 156.783 837.678 156.778H837.585H799.326V19.9914H810.172V121.097H859.729V61.2189H900.685V13.9741H942.717V61.2484H983.652V121.126H1043.99L1043.98 156.778Z" fill="#6C63FF"/>
<path opacity="0.1" d="M799.326 160.98V296.766H1043.99V160.98H799.326ZM1110.37 456.591L1110.72 349.105H1043.99V301.006H799.326V537.113C819.384 537.911 839.472 537.678 859.503 536.416H859.852C869.42 535.827 878.944 534.989 888.424 533.903H888.639C939.226 528.264 988.689 515.613 1035.47 496.346" fill="#6C63FF"/>
<path opacity="0.1" d="M1139.89 300.967H1196.96C1196.47 328.54 1190.69 355.623 1178.02 380.634C1167.51 401.415 1152.88 419.584 1135.58 435.457V349.075H1139.89V300.967Z" fill="#6C63FF"/>
<path opacity="0.1" d="M1197 296.765H1139.89V183.282H1170.8C1186.78 219.042 1196.95 258.306 1197 296.765Z" fill="#6C63FF"/>
<path opacity="0.1" d="M774.476 58.0093H739.917V100.896H774.476V58.0093Z" fill="#6C63FF"/>
<path opacity="0.1" d="M774.476 146.903H739.917V156.778H774.476V146.903Z" fill="#6C63FF"/>
<path opacity="0.1" d="M774.476 160.97H739.917V189.78H774.476V160.97Z" fill="#6C63FF"/>
<path opacity="0.1" d="M774.476 235.798H739.917V278.684H774.476V235.798Z" fill="#6C63FF"/>
<path opacity="0.1" d="M774.476 324.692H739.917V367.579H774.476V324.692Z" fill="#6C63FF"/>
<path opacity="0.1" d="M774.476 446.5C774.814 446.5 775.152 446.5 775.501 446.569C775.163 446.569 774.824 446.569 774.476 446.51V456.473H739.917V413.587H774.476V446.5Z" fill="#6C63FF"/>
<path opacity="0.1" d="M774.476 502.471V535.591C762.912 534.681 751.392 533.408 739.917 531.772V502.471H774.476Z" fill="#6C63FF"/>
<path opacity="0.1" d="M602.411 293.615H454.305V296.766H602.411V293.615Z" fill="#6C63FF"/>
<path opacity="0.1" d="M602.411 300.957H454.305V313.031H602.411V300.957Z" fill="#6C63FF"/>
<path opacity="0.1" d="M602.411 352.609H454.305V372.026H602.411V352.609Z" fill="#6C63FF"/>
<path opacity="0.1" d="M602.411 411.604V431.02H486.567C481.523 427.342 476.554 423.567 471.661 419.692C468.257 417.013 464.895 414.264 461.481 411.604H602.411Z" fill="#6C63FF"/>
<path opacity="0.1" d="M602.411 470.589V490.054H590.181C576.423 484.112 562.945 477.637 549.748 470.628L602.411 470.589Z" fill="#6C63FF"/>
<path opacity="0.1" d="M888.659 174.133H859.503V202.05H888.659V174.133Z" fill="#6C63FF"/>
<path opacity="0.1" d="M257.379 44.0605H228.224V71.9775H257.379V44.0605Z" fill="#6C63FF"/>
<path opacity="0.1" d="M257.379 108.905H228.224V136.822H257.379V108.905Z" fill="#6C63FF"/>
<path opacity="0.1" d="M257.379 173.75H228.224V201.667H257.379V173.75Z" fill="#6C63FF"/>
<path opacity="0.1" d="M257.379 238.586H228.224V266.503H257.379V238.586Z" fill="#6C63FF"/>
<path opacity="0.1" d="M257.379 303.431H228.224V331.348H257.379V303.431Z" fill="#6C63FF"/>
<path opacity="0.1" d="M257.379 368.276H228.224V396.193H257.379V368.276Z" fill="#6C63FF"/>
<path opacity="0.1" d="M999.962 174.133H970.806V202.05H999.962V174.133Z" fill="#6C63FF"/>
<path opacity="0.1" d="M888.659 242.993H859.503V270.91H888.659V242.993Z" fill="#6C63FF"/>
<path opacity="0.1" d="M999.962 242.993H970.806V270.91H999.962V242.993Z" fill="#6C63FF"/>
<path opacity="0.1" d="M888.659 311.843H859.503V339.76H888.659V311.843Z" fill="#6C63FF"/>
<path opacity="0.1" d="M999.962 311.843H970.806V339.76H999.962V311.843Z" fill="#6C63FF"/>
<path opacity="0.1" d="M888.659 380.703H859.503V408.62H888.659V380.703Z" fill="#6C63FF"/>
<path opacity="0.1" d="M999.962 380.703H970.806V408.62H999.962V380.703Z" fill="#6C63FF"/>
<path opacity="0.1" d="M888.659 449.562H859.503V477.479H888.659V449.562Z" fill="#6C63FF"/>
<path opacity="0.1" d="M999.962 449.562H970.806V477.479H999.962V449.562Z" fill="#6C63FF"/>
<path opacity="0.1" d="M859.503 536.415V518.413H888.649V533.853L859.503 536.415Z" fill="#6C63FF"/>
<path opacity="0.1" d="M82.6083 121.863V137.834H182.378V121.863H82.6083ZM92.5422 136.832H84.3408V122.874H92.5422V136.832ZM102.476 136.832H94.2747V122.874H102.476V136.832ZM112.389 136.832H104.188V122.874H112.389V136.832ZM122.323 136.832H114.122V122.874H122.323V136.832ZM132.247 136.832H124.046V122.874H132.247V136.832ZM142.181 136.832H133.98V122.874H142.181V136.832ZM152.115 136.832H143.914V122.874H152.115V136.832ZM162.039 136.832H153.837V122.874H162.039V136.832ZM171.962 136.832H163.761V122.874H171.962V136.832ZM181.896 136.832H173.695V122.874H181.896V136.832Z" fill="#6C63FF"/>
<path opacity="0.1" d="M82.6083 168.352V184.322H182.378V168.352H82.6083ZM92.5422 183.321H84.3408V169.363H92.5422V183.321ZM102.476 183.321H94.2747V169.363H102.476V183.321ZM112.389 183.321H104.188V169.363H112.389V183.321ZM122.323 183.321H114.122V169.363H122.323V183.321ZM132.247 183.321H124.046V169.363H132.247V183.321ZM142.181 183.321H133.98V169.363H142.181V183.321ZM152.115 183.321H143.914V169.363H152.115V183.321ZM162.039 183.321H153.837V169.363H162.039V183.321ZM171.962 183.321H163.761V169.363H171.962V183.321ZM181.896 183.321H173.695V169.363H181.896V183.321Z" fill="#6C63FF"/>
<path opacity="0.1" d="M82.6083 214.851V230.811H182.378V214.851H82.6083ZM92.5422 229.8H84.3408V215.842H92.5422V229.8ZM102.476 229.8H94.2747V215.842H102.476V229.8ZM112.389 229.8H104.188V215.842H112.389V229.8ZM122.323 229.8H114.122V215.842H122.323V229.8ZM132.247 229.8H124.046V215.842H132.247V229.8ZM142.181 229.8H133.98V215.842H142.181V229.8ZM152.115 229.8H143.914V215.842H152.115V229.8ZM162.039 229.8H153.837V215.842H162.039V229.8ZM171.962 229.8H163.761V215.842H171.962V229.8ZM181.896 229.8H173.695V215.842H181.896V229.8Z" fill="#6C63FF"/>
<path opacity="0.1" d="M82.6083 261.339V277.3H182.378V261.339H82.6083ZM92.5422 276.299H84.3408V262.321H92.5422V276.299ZM102.476 276.299H94.2747V262.321H102.476V276.299ZM112.389 276.299H104.188V262.321H112.389V276.299ZM122.323 276.299H114.122V262.321H122.323V276.299ZM132.247 276.299H124.046V262.321H132.247V276.299ZM142.181 276.299H133.98V262.321H142.181V276.299ZM152.115 276.299H143.914V262.321H152.115V276.299ZM162.039 276.299H153.837V262.321H162.039V276.299ZM171.962 276.299H163.761V262.321H171.962V276.299ZM181.896 276.299H173.695V262.321H181.896V276.299Z" fill="#6C63FF"/>
<path opacity="0.1" d="M83.0901 307.809C83.4797 309.32 83.941 310.812 84.4126 312.295V308.82H92.6139V322.768H88.2159C88.339 323.102 88.4722 323.446 88.6158 323.75H182.419V307.809H83.0901ZM102.568 322.768H94.367V308.82H102.568V322.768ZM112.482 322.768H104.28V308.82H112.482V322.768ZM122.416 322.768H114.214V308.82H122.416V322.768ZM132.339 322.768H124.138V308.82H132.339V322.768ZM142.273 322.768H134.072V308.82H142.273V322.768ZM152.207 322.768H144.006V308.82H152.207V322.768ZM162.131 322.768H153.929V308.82H162.131V322.768ZM172.054 322.768H163.853V308.82H172.054V322.768ZM181.988 322.768H173.787V308.82H181.988V322.768Z" fill="#6C63FF"/>
<path opacity="0.1" d="M106.198 354.298C106.464 354.612 106.71 354.965 106.966 355.279H112.39V361.984L114.143 363.947V355.24H122.344V369.316H118.971C119.299 369.64 119.617 369.984 119.996 370.298H182.357V354.298H106.198ZM132.298 369.316H124.097V355.299H132.298V369.316ZM142.232 369.316H134.031V355.299H142.232V369.316ZM152.166 369.316H143.965V355.299H152.166V369.316ZM162.09 369.316H153.888V355.299H162.09V369.316ZM172.013 369.316H163.812V355.299H172.013V369.316ZM181.947 369.316H173.746V355.299H181.947V369.316Z" fill="#6C63FF"/>
<path opacity="0.1" d="M160.931 400.787C161.875 401.297 162.828 401.768 163.781 402.269V401.778H171.983V406.205C172.577 406.451 173.141 406.716 173.726 406.971V401.778H181.927V410.279C182.083 410.346 182.244 410.402 182.409 410.446V400.787H160.931Z" fill="#6C63FF"/>
<path opacity="0.1" d="M774.466 446.5H775.491H774.466ZM708.578 299.092C708.773 299.72 708.947 300.349 709.121 300.967C708.967 300.349 708.783 299.72 708.578 299.092ZM218.413 9.79259V13.9742H264.207V9.77295L218.413 9.79259ZM774.476 446.5H775.501H774.476ZM708.578 299.092C708.773 299.72 708.947 300.349 709.121 300.967C708.967 300.349 708.783 299.72 708.578 299.092ZM774.466 446.5H775.491H774.466ZM708.578 299.092C708.773 299.72 708.947 300.349 709.121 300.967C708.967 300.349 708.783 299.72 708.578 299.092Z" fill="#6C63FF"/>
<path d="M566.048 239.067C566.024 238.969 565.97 238.881 565.894 238.812C564.367 237.369 544.889 210.993 544.889 210.993C544.889 210.993 543.864 208.048 542.203 204.22C542.735 203.56 543.135 202.811 543.382 202.011C543.471 201.672 543.536 201.328 543.576 200.98C543.576 200.872 543.658 200.784 543.689 200.676C544.045 199.345 544.01 197.945 543.587 196.632C543.473 196.969 543.332 197.297 543.166 197.613C542.781 196.47 542.265 195.371 541.629 194.335C539.045 190.075 535.355 186.482 532.638 182.33C528.524 175.878 526.889 168.255 528.014 160.774C528.014 161.157 528.014 161.549 528.014 161.932C528.117 160.448 528.323 158.973 528.629 157.515C529.058 155.856 529.631 154.233 530.342 152.666C532.781 147.316 536.728 142.653 539.127 137.284C539.932 135.473 540.544 133.588 540.952 131.659C541.797 128.437 542.105 125.108 541.864 121.794C541.864 122.579 541.731 123.365 541.608 124.14C541.349 116.173 537.989 108.586 532.187 102.869C523.811 94.8097 511.786 91.6784 500.284 90.0293C495.45 89.4892 490.834 87.8022 486.854 85.1212C482.435 82.3825 476.725 81.7248 471.558 82.3236C465.62 82.9384 460.102 85.5506 455.986 89.6955C450.522 95.4477 448.154 103.595 441.777 108.444C437.912 111.389 433.012 112.763 428.511 114.766C424.011 116.768 419.756 119.674 418.311 123.973C418.311 123.973 418.311 123.914 418.311 123.885V124.13L418.249 124.287C416.753 129.372 419.644 134.545 421.151 139.62C422.719 144.872 422.822 150.418 422.904 155.846C423.016 162.482 423.119 169.127 423.006 175.773C422.955 178.384 422.863 181.024 422.658 183.626C420.231 184.328 417.874 185.235 415.615 186.335C413.318 187.768 404.727 196.651 404.727 196.651L387.925 258.12L388.15 258.365L387.925 259.2L388.776 259.013C391.154 261.467 398.259 268.456 405.927 272.814L406.644 284.869C406.644 284.869 407.506 296.962 419.121 301.958C419.387 306.15 420.218 323.171 416.373 329.915C413.711 334.841 412.459 340.355 412.744 345.895C412.744 345.895 414.087 356.123 412.56 361.503C411.667 365.098 411.601 368.835 412.365 372.457C412.365 372.457 412.365 373.645 412.365 375.687C412.365 386.573 412.498 421.459 412.365 425.405C412.17 430.068 412.365 499.026 412.365 499.026C412.365 499.026 411.411 533.49 408.356 542.825C405.301 552.16 406.07 583.071 406.07 583.071C406.07 583.071 404.153 619.891 410.93 627.155C410.93 627.479 410.868 627.813 410.858 628.137C410.858 628.284 410.858 628.451 410.858 628.598C410.776 631.396 411.34 634.37 413.851 635.283C418.977 637.168 425.754 642.822 427.035 644.441C428.317 646.061 435.77 650.095 445.488 649.016C451.576 648.36 457.703 648.091 463.828 648.211C463.828 648.211 467.663 647.543 466.422 642.979C465.623 640.132 462.629 635.754 460.497 632.878C460.886 632.976 461.266 633.055 461.624 633.123L461.993 633.192H462.28C462.438 633.201 462.595 633.201 462.752 633.192H462.957C463.148 633.207 463.34 633.207 463.531 633.192C466.104 632.957 475.7 637.236 477.412 640.063C479.124 642.89 485.162 645.04 489.714 645.58C492.42 645.894 499.248 645.364 504.979 644.657C507.865 644.372 510.723 643.873 513.529 643.165C514.882 642.674 515.169 641.104 514.779 639.337C514.319 637.093 513.067 635.069 511.232 633.604C509.572 632.476 507.378 629.501 505.758 627.067L505.327 626.409C508.188 623.798 513.354 615.258 514.923 613.491C516.83 611.342 511.847 532.725 511.847 532.725V493.313L519.485 456.012L524.826 436.272L529.409 406.47C529.409 406.47 537.425 371.662 534.955 368.246C534.955 368.178 532.904 332.339 530.752 323.73C529.819 319.892 530.055 311.254 530.608 302.852C531.187 302.301 531.59 301.605 531.772 300.844C531.953 300.083 531.905 299.288 531.633 298.552C531.48 298.049 531.281 297.56 531.039 297.09C531.039 296.942 531.039 296.785 531.039 296.638C535.467 294.687 540.095 293.18 544.848 292.142C552.485 290.709 550.578 286.94 550.578 286.94C550.578 286.94 552.301 283.71 553.439 281.737C554.577 279.764 553.633 262.351 553.439 260.917C553.367 260.338 552.895 257.138 552.352 253.506C554.802 251.837 557.99 249.766 561.466 247.803C568.078 244.053 566.592 240.097 566.048 239.067ZM466.402 487.934C466.402 487.934 460.671 501.932 462.967 505.514C465.264 509.097 462.588 522.398 462.588 522.398L460.671 542.138C460.671 542.138 455.33 578.752 457.237 587.361C458.733 594.114 459.287 614.286 459.461 622.699C459.33 622.748 459.203 622.807 459.082 622.875L458.826 623.003C459.707 619.695 459.338 613 454.961 599.533L454.592 543.905C454.592 543.905 453.915 479.649 459.215 472.464C464.515 465.278 466.391 453.077 466.391 453.077C466.391 453.077 465.243 470.677 464.495 475.34C463.746 480.002 466.402 487.934 466.402 487.934ZM455.73 626.203C455.678 626.321 455.617 626.439 455.576 626.547L455.289 626.193C455.435 626.207 455.583 626.21 455.73 626.203Z" fill="url(#paint0_linear_20_2)"/>
<path d="M529.88 410.014L525.349 439.992L520.08 459.86L512.534 497.416V537.171C512.534 537.171 517.435 616.269 515.548 618.429C513.662 620.588 506.496 632.888 504.61 632.171C502.723 631.455 487.264 628.922 482.353 631.082C477.443 633.241 460.825 631.445 460.825 631.445C460.825 631.445 460.445 600.75 458.559 592.083C456.673 583.415 461.952 546.575 461.952 546.575L463.839 526.717C463.839 526.717 466.484 513.348 464.218 509.735C461.952 506.123 467.611 492.067 467.611 492.067C467.611 492.067 464.977 484.106 465.735 479.414C466.494 474.722 467.611 457.023 467.611 457.023C467.611 457.023 465.735 469.313 460.497 476.528C455.258 483.742 455.924 548.401 455.924 548.401L456.293 604.353C465.735 633.978 456.293 631.082 456.293 631.082C456.293 631.082 420.474 638.67 413.236 632.525C405.999 626.38 408.069 587.705 408.069 587.705C408.069 587.705 407.321 556.647 410.335 547.262C413.349 537.878 414.302 503.198 414.302 503.198C414.302 503.198 414.108 433.847 414.302 429.165C414.446 425.239 414.302 390.087 414.302 379.103C414.302 377.061 414.302 375.854 414.302 375.854L418.629 365.567L469.887 359.422H494.409C494.409 359.422 531.315 367.726 535.129 371.309C535.21 371.369 535.28 371.442 535.334 371.525C537.805 374.99 529.88 410.014 529.88 410.014Z" fill="#6C63FF"/>
<path d="M457.411 91.374C452.008 97.1557 449.671 105.352 443.376 110.241C439.552 113.185 434.713 114.589 430.264 116.592C425.815 118.594 421.407 121.647 420.084 126.182C418.608 131.286 421.458 136.499 422.955 141.603C424.503 146.884 424.595 152.401 424.687 157.927C424.79 164.612 424.903 171.297 424.78 177.981C424.595 188.396 423.693 199.292 417.921 208.117C438.763 214.468 460.927 215.331 482.784 216.146C486.984 216.433 491.203 216.331 495.383 215.842C499.005 215.151 502.588 214.283 506.117 213.241C513.094 211.473 520.284 210.592 527.502 210.62C530.649 210.62 533.858 210.806 536.892 210.021C539.927 209.236 542.849 207.223 543.669 204.318C544.397 201.707 543.33 198.929 541.936 196.583C539.394 192.303 535.785 188.73 533.058 184.509C530.274 180.051 528.623 175.028 528.236 169.847C527.85 164.666 528.74 159.47 530.834 154.678C533.253 149.289 537.149 144.597 539.527 139.198C541.963 133.401 542.611 127.057 541.393 120.919C540.176 114.78 537.144 109.105 532.658 104.567C524.385 96.4588 512.514 93.3176 501.155 91.6489C496.372 91.108 491.809 89.4198 487.889 86.7408C483.532 83.9923 477.883 83.3248 472.778 83.9334C466.888 84.5654 461.433 87.2066 457.411 91.374Z" fill="#3F3D56"/>
<g opacity="0.1">
<path opacity="0.1" d="M531.151 149.014C529.061 153.744 528.166 158.879 528.537 164.003C528.767 160.339 529.651 156.74 531.151 153.362C533.561 147.973 537.456 143.281 539.835 137.882C541.779 133.374 542.597 128.494 542.223 123.629C542.012 127.039 541.204 130.39 539.835 133.544C537.456 138.942 533.561 143.625 531.151 149.014Z" fill="black"/>
<path opacity="0.1" d="M424.995 156.592C425.056 160.44 425.118 164.298 425.128 168.146C425.128 162.845 425.077 157.554 424.995 152.263C424.913 146.776 424.81 141.22 423.262 135.929C422.237 132.572 420.72 129.166 420.187 125.779C419.275 130.589 421.868 135.468 423.262 140.268C424.81 145.51 424.913 151.105 424.995 156.592Z" fill="black"/>
<path opacity="0.1" d="M537.241 204.406C534.165 205.201 531.008 205.024 527.861 205.005C520.649 204.961 513.462 205.826 506.486 207.577C502.956 208.614 499.374 209.479 495.752 210.168C491.57 210.665 487.346 210.771 483.143 210.482C462.024 209.687 440.608 208.833 420.382 203.051C419.781 204.335 419.096 205.581 418.331 206.782C439.173 213.123 461.337 213.996 483.184 214.811C487.387 215.1 491.611 214.994 495.793 214.497C499.402 213.815 502.971 212.953 506.486 211.915C513.447 210.158 520.62 209.283 527.82 209.314C530.967 209.314 534.165 209.501 537.2 208.706C540.234 207.91 543.156 205.918 543.976 203.012C544.322 201.666 544.286 200.257 543.874 198.929C542.961 201.677 540.142 203.591 537.241 204.406Z" fill="black"/>
</g>
<path d="M506.875 192.774C506.117 194.403 502.918 208.48 502.16 209.923C501.401 211.366 497.259 234.463 496.88 235.759C496.501 237.054 469.58 230.34 469.58 230.34L453.372 217.334L436.713 201.461C436.713 201.461 436.221 187.14 448.492 182.546C449.326 182.232 450.182 181.976 451.055 181.78C465.94 178.354 464.444 135.016 464.444 135.016L494.994 147.649C494.994 147.649 489.335 172.936 489.529 177.814C489.581 179.454 490.924 180.474 492.677 181.093C495.387 181.831 498.209 182.123 501.022 181.957C501.022 181.957 507.634 191.154 506.875 192.774Z" fill="#FBBEBE"/>
<path d="M561.568 240.264L565.905 241.354C565.905 241.354 569.113 246.026 561.568 250.375C556.777 253.161 552.178 256.24 547.8 259.592L525.503 266.09L521.207 253.182L541.957 238.104L561.568 240.264Z" fill="#6C63FF"/>
<path opacity="0.1" d="M561.568 240.264L565.905 241.354C565.905 241.354 569.113 246.026 561.568 250.375C556.777 253.161 552.178 256.24 547.8 259.592L525.503 266.09L521.207 253.182L541.957 238.104L561.568 240.264Z" fill="black"/>
<path d="M398.843 252.731L390.17 260.859C390.17 260.859 405.814 278.194 417.85 279.273C429.885 280.353 437.646 266.09 437.646 266.09L427.23 250.385L398.843 252.731Z" fill="#6C63FF"/>
<path opacity="0.1" d="M398.843 252.731L390.17 260.859C390.17 260.859 405.814 278.194 417.85 279.273C429.885 280.353 437.646 266.09 437.646 266.09L427.23 250.385L398.843 252.731Z" fill="black"/>
<path opacity="0.1" d="M481.226 163.336C497.889 163.336 511.396 150.402 511.396 134.447C511.396 118.492 497.889 105.558 481.226 105.558C464.563 105.558 451.055 118.492 451.055 134.447C451.055 150.402 464.563 163.336 481.226 163.336Z" fill="black"/>
<path d="M481.226 161.166C497.889 161.166 511.396 148.232 511.396 132.277C511.396 116.323 497.889 103.389 481.226 103.389C464.563 103.389 451.055 116.323 451.055 132.277C451.055 148.232 464.563 161.166 481.226 161.166Z" fill="#FBBEBE"/>
<path opacity="0.1" d="M535.354 374.804C528.485 375.556 521.718 377.007 515.169 379.132C503.892 382.725 415.522 379.191 414.292 379.132C414.292 377.091 414.292 375.883 414.292 375.883L418.618 365.596L469.877 359.451H494.399C494.399 359.451 531.305 367.756 535.119 371.338C535.272 373.498 535.354 374.804 535.354 374.804Z" fill="black"/>
<path opacity="0.1" d="M506.875 192.774C506.117 194.403 502.918 208.48 502.16 209.923C501.401 211.366 497.259 234.463 496.88 235.758C496.501 237.054 469.58 230.34 469.58 230.34L453.372 217.334L436.713 201.461C436.713 201.461 436.221 187.139 448.492 182.546L478.96 216.087L492.677 181.093C495.387 181.831 498.209 182.123 501.022 181.957C501.022 181.957 507.634 191.154 506.875 192.774Z" fill="black"/>
<path d="M478.96 217.167L447.774 182.811C445.949 181.695 443.862 181.031 441.702 180.879C439.543 180.726 437.377 181.09 435.4 181.937C428.419 184.833 419.746 187.179 417.48 188.622C415.215 190.065 406.726 198.998 406.726 198.998L432.007 262.321L420.874 304.03C420.874 304.03 422.575 325.34 418.239 333.105C415.599 338.07 414.362 343.609 414.651 349.174C414.651 349.174 415.973 359.471 414.466 364.88C413.586 368.496 413.519 372.25 414.272 375.893C414.272 375.893 503.861 379.506 515.169 375.893C521.716 373.762 528.483 372.311 535.354 371.564C535.354 371.564 533.304 335.441 531.254 326.774C529.203 318.106 532.956 285.065 532.956 285.065L530.505 249.668L545.206 213.349C545.206 213.349 537.241 190.065 528.937 187.719C528.937 187.719 513.857 184.283 510.648 182.664C507.439 181.044 498.008 179.591 498.008 179.591L493.056 181.182L478.96 217.167Z" fill="#6C63FF"/>
<path opacity="0.1" d="M522.471 248.473L456.847 244.2C455.186 244.092 453.749 245.293 453.636 246.884L446.59 346.091C446.477 347.682 447.732 349.058 449.393 349.167L515.016 353.439C516.677 353.547 518.115 352.346 518.228 350.756L525.273 251.548C525.386 249.958 524.131 248.581 522.471 248.473Z" fill="black"/>
<path d="M524.73 246.318L459.107 242.045C457.446 241.937 456.008 243.139 455.895 244.729L448.85 343.937C448.737 345.527 449.992 346.904 451.653 347.012L517.276 351.284C518.937 351.393 520.375 350.191 520.487 348.601L527.533 249.393C527.646 247.803 526.391 246.426 524.73 246.318Z" fill="#3F3D56"/>
<path d="M522.565 254.095L460.153 250.031L453.739 340.347L516.151 344.41L522.565 254.095Z" fill="white"/>
<path opacity="0.1" d="M516.968 277.148L465.987 273.73L464.992 287.336L515.974 290.753L516.968 277.148Z" fill="black"/>
<path opacity="0.1" d="M515.124 331.213L507.033 330.687L506.53 337.777L514.62 338.304L515.124 331.213Z" fill="black"/>
<path opacity="0.1" d="M507.143 314.101L465.73 311.404L465.226 318.495L506.64 321.191L507.143 314.101Z" fill="black"/>
<path d="M514.84 250.718L471.718 247.91L470.944 258.81L514.066 261.618L514.84 250.718Z" fill="#3F3D56"/>
<path opacity="0.1" d="M514.84 250.718L471.718 247.91L470.944 258.81L514.066 261.618L514.84 250.718Z" fill="black"/>
<path opacity="0.1" d="M482.733 372.811C482.733 372.811 482.353 426.269 467.642 456.964C467.642 456.964 485.378 416.512 485.378 414.892C485.378 413.272 495.178 396.291 492.554 391.235C489.929 386.18 482.733 372.811 482.733 372.811Z" fill="black"/>
<path opacity="0.1" d="M483.532 125.053C482.969 120.321 484.178 115.552 486.946 111.595C486.617 115.561 487.788 119.508 490.246 122.716C492.704 125.923 496.285 128.178 500.335 129.068C499.989 128.78 499.742 128.4 499.627 127.976C499.512 127.552 499.533 127.104 499.689 126.692C501.79 128.969 503.4 131.669 505.778 133.671C508.157 135.674 511.724 136.871 514.523 135.448C518.326 133.485 518.367 128.312 517.383 124.287C515.271 115.716 510.938 107.793 504.784 101.249C503.248 99.2706 501.255 97.6598 498.961 96.5426C496.667 95.4254 494.133 94.8322 491.559 94.8094C485.736 94.3775 479.688 94.8683 474.47 97.3714C471.533 98.9056 468.783 100.746 466.268 102.859L451.916 114.069C450.535 115.021 449.353 116.213 448.43 117.583C447.814 118.728 447.445 119.979 447.344 121.264C446.977 124.935 447.686 128.632 449.392 131.938C451.098 135.245 453.733 138.031 457.001 139.983C456.932 137.081 457.765 134.226 459.395 131.779C461.025 129.331 463.378 127.404 466.155 126.24C466.59 126.589 466.943 127.022 467.188 127.511C467.434 128.001 467.568 128.535 467.58 129.077L470.605 123.914C471.055 122.975 471.763 122.17 472.655 121.588C474.521 120.606 476.848 121.764 478.437 123.148C480.026 124.532 481.574 126.26 483.706 126.476L483.788 118.79" fill="black"/>
<path d="M483.532 123.973C482.967 119.239 484.177 114.465 486.946 110.506C486.023 118.358 492.205 126.467 500.345 127.978C499.999 127.693 499.752 127.314 499.637 126.892C499.521 126.469 499.543 126.023 499.699 125.613C501.801 127.89 503.41 130.579 505.789 132.592C508.167 134.604 511.735 135.792 514.533 134.359C518.337 132.395 518.378 127.222 517.394 123.208C515.282 114.637 510.948 106.713 504.794 100.169C502.885 97.9405 500.478 96.1494 497.751 94.9275C495.777 94.2284 493.703 93.8245 491.6 93.7299C485.777 93.298 479.729 93.779 474.511 96.2821C471.576 97.8232 468.826 99.6665 466.309 101.779L451.957 112.989C450.574 113.939 449.391 115.132 448.471 116.503C447.854 117.648 447.484 118.9 447.385 120.184C447.019 123.854 447.729 127.549 449.434 130.854C451.14 134.159 453.775 136.943 457.042 138.894C456.975 135.993 457.81 133.138 459.44 130.691C461.069 128.245 463.421 126.317 466.197 125.151C466.63 125.501 466.981 125.934 467.227 126.423C467.472 126.912 467.607 127.446 467.621 127.988L470.635 122.844C471.083 121.903 471.792 121.098 472.686 120.518C474.552 119.536 476.879 120.695 478.468 122.079C480.057 123.463 481.605 125.181 483.737 125.406L483.819 117.711" fill="#3F3D56"/>
<path d="M497.823 306.189C495.188 304.913 451.619 311.421 451.619 311.421C451.619 311.421 444.442 309.458 427.096 306.729C409.751 304 408.643 287.764 408.643 287.764L406.747 255.263L412.601 250.355L437.676 266.061C437.676 266.061 438.066 274.002 437.676 275.435C437.43 276.417 436.774 277.585 436.836 278.38C436.855 278.595 436.947 278.798 437.099 278.958C437.251 279.118 437.454 279.225 437.676 279.263C439.378 279.676 462.567 283.268 462.567 283.268C462.567 283.268 516.317 279.744 529.716 297.08C530.778 298.352 531.581 299.804 532.084 301.359C535.406 313.207 500.212 307.318 497.823 306.189Z" fill="#FBBEBE"/>
<path opacity="0.1" d="M532.115 301.428C530.065 302.302 528.793 302.93 528.793 302.93C528.793 302.93 509.561 302.39 498.756 298.64C487.951 294.891 474.818 295.558 474.818 295.558C474.818 295.558 429.793 288.137 436.774 278.449C436.793 278.664 436.886 278.867 437.038 279.027C437.19 279.187 437.393 279.294 437.615 279.332C439.317 279.744 462.506 283.337 462.506 283.337C462.506 283.337 516.256 279.813 529.655 297.148C530.749 298.414 531.584 299.866 532.115 301.428Z" fill="black"/>
<path d="M550.814 244.24C550.814 244.24 553.459 262.115 553.644 263.568C553.828 265.02 554.782 282.522 553.644 284.515C552.506 286.508 550.814 289.747 550.814 289.747C550.814 289.747 552.7 293.536 545.155 294.989C537.61 296.442 528.752 300.761 528.752 300.761C528.752 300.761 509.51 300.221 498.766 296.432C488.022 292.643 474.818 293.359 474.818 293.359C474.818 293.359 417.665 283.965 442.187 272.5C466.709 261.035 484.055 276.564 484.055 276.564L511.396 274.944C511.396 274.944 521.587 268.976 524.416 269.526C526.414 269.77 528.443 269.456 530.259 268.623L530.454 249.658L550.814 244.24Z" fill="#FBBEBE"/>
<path opacity="0.1" d="M412.17 200.362L406.696 200.087L390.108 261.928C390.108 261.928 408.018 257.589 415.738 261.928C423.457 266.267 437.615 267.16 437.615 267.16L432.335 217.864L412.17 200.362Z" fill="black"/>
<path d="M412.17 199.272L406.696 198.998L390.108 260.839C390.108 260.839 408.018 256.5 415.738 260.839C423.457 265.178 437.615 266.071 437.615 266.071L432.335 216.774L412.17 199.272Z" fill="#6C63FF"/>
<path opacity="0.1" d="M537.62 212.818L545.155 214.448C545.155 214.448 564.398 240.951 565.905 242.433C567.412 243.916 558.728 249.305 555.151 249.305C551.573 249.305 534.032 251.268 528.937 255.803C523.842 260.338 525.964 237.516 525.964 236.995C525.964 236.475 532.289 222.075 532.289 222.075L537.62 212.818Z" fill="black"/>
<path d="M537.62 211.739L545.155 213.358C545.155 213.358 564.398 239.911 565.905 241.354C567.412 242.797 558.728 248.225 555.151 248.225C551.573 248.225 534.032 250.188 528.937 254.723C523.842 259.258 525.964 236.436 525.964 235.916C525.964 235.396 532.33 220.946 532.33 220.946L537.62 211.739Z" fill="#6C63FF"/>
<g opacity="0.1">
<path opacity="0.1" d="M486.895 110.594C486.85 109.841 486.868 109.086 486.946 108.336C485.385 110.579 484.311 113.099 483.788 115.747V118.024C483.788 118.024 483.788 117.975 483.788 117.946V118.486C483.788 120.076 483.788 121.676 483.737 123.266H483.594V124.002C483.594 123.747 483.594 123.502 483.542 123.247C481.492 122.932 480.026 121.283 478.499 119.968C476.971 118.653 474.582 117.396 472.717 118.407C471.823 118.988 471.113 119.792 470.666 120.734L467.622 125.877C467.608 125.336 467.474 124.804 467.228 124.316C466.983 123.829 466.631 123.397 466.197 123.05C463.419 124.214 461.066 126.141 459.436 128.588C457.806 131.035 456.973 133.891 457.042 136.793C454.241 135.112 451.898 132.818 450.206 130.099C448.514 127.38 447.523 124.314 447.313 121.156C447.135 124.683 447.942 128.191 449.653 131.319C451.363 134.448 453.913 137.083 457.042 138.952C456.975 136.051 457.81 133.196 459.44 130.75C461.07 128.303 463.421 126.375 466.197 125.21C466.63 125.559 466.981 125.993 467.227 126.482C467.472 126.971 467.607 127.504 467.622 128.047L470.636 122.903C471.083 121.962 471.792 121.157 472.686 120.577C474.552 119.595 476.879 120.753 478.468 122.137C480.057 123.521 481.605 125.239 483.737 125.465C483.737 122.952 483.765 120.446 483.819 117.946C484.322 115.323 485.368 112.824 486.895 110.594Z" fill="black"/>
<path opacity="0.1" d="M483.43 120.479C483.481 119.811 483.563 119.144 483.666 118.515L483.779 115.806C483.47 117.345 483.353 118.913 483.43 120.479Z" fill="black"/>
<path opacity="0.1" d="M514.533 132.189C511.735 133.622 508.167 132.425 505.789 130.422C503.41 128.42 501.801 125.72 499.699 123.443C499.544 123.855 499.522 124.302 499.638 124.726C499.753 125.151 500 125.531 500.345 125.818C500.14 125.818 499.945 125.72 499.75 125.671C501.801 127.929 503.431 130.579 505.789 132.542C508.147 134.506 511.735 135.742 514.533 134.309C517.332 132.876 518.132 129.519 517.886 126.25C517.701 128.822 516.738 131.05 514.533 132.189Z" fill="black"/>
<path opacity="0.1" d="M499.689 125.652C496.261 124.757 493.2 122.88 490.917 120.273C488.634 117.666 487.238 114.453 486.915 111.065C486.331 118.771 492.4 126.496 500.345 127.978C500.007 127.697 499.763 127.325 499.647 126.911C499.53 126.496 499.544 126.058 499.689 125.652Z" fill="black"/>
</g>
<path d="M992.017 286.086C992.017 286.086 987.978 285.546 987.978 279.921C987.978 274.296 985.087 263.764 985.087 263.764C985.087 263.764 982.585 245.437 979.131 242.532C975.676 239.626 971.237 222.566 971.237 222.566C971.237 222.566 970.478 213.309 968.93 211.316C967.382 209.324 965.291 204.445 962.205 197.486C959.119 190.526 946.284 185.755 946.284 185.755C946.284 185.755 923.023 172.837 916.431 168.626C915.828 168.277 915.265 167.869 914.75 167.409C913.602 165.976 908.599 165.947 908.599 165.947C908.076 162.776 907.574 159.144 907.41 155.856C907.41 155.502 907.41 155.149 907.41 154.795C914.76 150.635 920.296 144.076 923.003 136.322C923.126 135.949 923.228 135.566 923.341 135.183C923.791 135.05 924.206 134.827 924.559 134.53C924.913 134.232 925.196 133.866 925.391 133.455C925.976 132.189 925.996 130.717 926.734 129.529C927.595 128.135 929.236 127.389 930.527 126.348C933.787 123.688 934.628 119.222 934.474 115.168C934.372 111.87 933.818 108.552 934.033 105.283C934.033 105.008 934.033 104.733 934.095 104.459C934.156 103.978 934.228 103.477 934.32 103.006C934.823 100.571 935.92 98.2745 936.535 95.8598C937.15 93.445 937.211 90.7259 935.776 88.6449C933.675 85.5921 929.297 84.9835 925.453 84.7185C921.096 84.3651 917.251 84.8167 914.412 81.3516C913.109 79.5418 911.641 77.8467 910.024 76.2865C909.45 75.7761 903.873 72.5073 903.873 72.3012C898.416 69.8719 892.226 69.4152 886.445 71.0152C883.544 71.8202 880.827 73.1355 877.885 73.7932C871.57 75.2264 864.291 73.6754 858.919 77.1405C855.926 79.1037 854.132 82.235 852.45 85.2682C851.083 87.768 849.696 90.2711 848.288 92.7775C846.012 96.8904 843.716 101.072 842.762 105.627C842.563 106.622 842.436 107.629 842.383 108.64C842.383 109.003 842.383 109.367 842.383 109.73C842.383 109.887 842.383 110.044 842.383 110.201C842.383 110.535 842.383 110.869 842.445 111.183C842.506 111.497 842.445 111.585 842.516 111.791C842.588 111.997 842.609 112.459 842.67 112.773C842.732 113.087 842.855 113.646 842.978 114.069C842.978 114.255 843.101 114.432 843.162 114.618C843.224 114.805 843.388 115.276 843.521 115.6C843.654 115.924 843.665 115.943 843.747 116.11C843.9 116.454 844.085 116.788 844.269 117.092C844.351 117.22 844.413 117.347 844.495 117.475C844.776 117.934 845.091 118.374 845.438 118.79C847.622 121.411 850.861 123.08 853.25 125.534C853.25 125.632 853.25 125.73 853.25 125.828C853.25 126.093 853.25 126.358 853.25 126.633C853.396 132.107 854.937 137.463 857.739 142.236C860.54 147.009 864.518 151.055 869.325 154.02C869.325 154.393 869.376 154.776 869.396 155.159C869.596 158.069 869.559 160.99 869.284 163.895C868.865 163.425 868.342 163.051 867.754 162.8C867.165 162.548 866.525 162.426 865.88 162.442C865.44 162.421 864.998 162.458 864.568 162.55L864.476 162.481V162.57C862.22 163.1 859.442 165.348 856.787 171.738C856.787 171.738 848.708 180.455 842.557 180.092C836.406 179.728 820.834 189.171 820.834 189.171C820.834 189.171 805.641 198.605 802.381 208.224C800.558 213.681 798.37 219.019 795.83 224.205L776.998 261.231L773.543 290.679C773.543 290.679 775.46 303.745 775.081 305.747C774.701 307.75 782.964 325.713 782.964 325.713C782.964 325.713 810.264 371.633 821.418 373.989L822.218 373.458C822.697 373.69 823.203 373.868 823.725 373.989L826.021 372.447C826.164 374.173 826.102 375.908 825.837 377.621C824.309 382.165 826.421 411.751 829.107 417.552C831.793 423.354 830.84 499.428 830.84 499.428L830.46 506.133C830.46 506.133 830.46 506.349 830.553 506.722L830.46 508.312L830.737 508.449C831.024 510.582 830.931 512.746 830.46 514.849C829.497 517.794 829.107 526.108 829.107 526.108C829.107 526.108 821.418 573.108 825.068 582.551C828.718 591.994 831.803 602.34 831.803 602.34C831.803 602.34 835.648 614.119 831.988 616.082C828.328 618.046 817.964 621.53 820.075 626.429C822.023 630.964 829.415 643.116 830.512 644.893L830.419 645.874L828.912 661.511C829.156 663.576 829.741 665.59 830.645 667.479C832.295 670.895 835.494 674.419 841.604 674.037C842.629 673.968 843.808 673.86 844.966 673.713C856.131 672.27 869.868 667.499 869.868 667.499C869.156 667.067 868.504 666.549 867.93 665.958C867.382 665.449 866.947 664.838 866.652 664.163C866.358 663.488 866.21 662.763 866.218 662.032C866.382 659.175 860.816 645.619 859.421 642.272L859.104 641.526C859.104 641.526 871.795 628.814 869.683 617.565C869.683 617.565 855.639 609.712 860.262 605.393C864.886 601.074 873.148 588.705 873.148 588.705C873.148 588.705 873.528 542.423 873.148 535.522C872.753 530.722 872.991 525.894 873.856 521.151C874.01 520.444 874.194 519.747 874.389 519.051C880.789 519.975 887.251 520.444 893.724 520.454C896.088 520.454 898.48 520.408 900.9 520.317C900.9 520.971 900.931 521.678 900.992 522.437C901.525 533.902 902.52 554.015 903.329 561.485C904.478 572.185 910.823 601.054 910.823 601.054C910.823 601.054 898.716 608.485 912.935 626.831C912.935 626.831 912.935 633.467 911.992 634.439C910.985 637.586 910.173 640.789 909.563 644.029C908.968 647.474 908.722 650.979 909.686 652.785C911.992 657.124 925.832 656.77 925.832 656.77C925.943 656.745 926.056 656.729 926.17 656.721C928.783 656.457 931.424 656.694 933.939 657.419C936.455 658.143 938.794 659.341 940.82 660.942C946.079 664.986 966.029 663.219 976.845 661.924C981.078 661.403 983.908 660.942 983.908 660.942C984.044 660.483 984.093 660.004 984.051 659.528C983.939 656.986 981.858 651.411 967.751 646.434C967.751 646.434 954.486 637.894 954.67 630.453H954.373H952.845C953.809 630.424 954.486 630.424 954.486 630.424C954.486 630.424 949.288 612.274 951.41 610.792C953.532 609.309 947.176 589.196 947.176 589.196C947.176 589.196 943.537 555.429 943.332 553.073C943.345 551.043 943.67 549.025 944.295 547.085L943.332 528.562C943.332 528.562 943.147 522.408 943.332 520.405C943.311 518.667 943.167 516.932 942.901 515.212C942.809 514.525 942.717 513.809 942.614 513.102C947.586 511.895 950.815 510.785 950.815 510.785L950.241 446.343C954.465 438.49 955.244 421.253 955.224 409.042C955.224 401.189 954.855 395.378 954.855 395.378L960.626 386.357C960.626 386.357 961.959 375.559 959.847 373.193C958.914 372.123 959.335 371.014 960.103 370.101C960.508 369.784 960.936 369.495 961.385 369.238C961.334 369.169 961.29 369.097 961.252 369.022C961.655 368.699 962.083 368.407 962.533 368.148C962.533 368.148 960.483 365.105 962.318 363.819C964.04 364.938 965.578 365.831 966.747 366.469C966.665 367.186 966.583 367.598 966.583 367.598L967.075 366.617C968.202 367.225 968.889 367.598 968.889 367.598C968.889 367.598 977.931 350.351 977.736 347.819C977.542 345.286 983.887 334.567 983.887 334.567C983.887 334.567 984.656 328.933 988.121 326.577C991.586 324.221 990.807 307.151 990.807 307.151C990.807 307.151 991.771 298.257 994.078 294.635C996.384 291.013 992.017 286.086 992.017 286.086ZM819.009 278.517L819.183 282.63C818.158 281.05 817.42 279.921 817.42 279.921L819.009 278.517Z" fill="url(#paint1_linear_20_2)"/>
<path d="M969.422 360.138L967.208 369.169C967.208 369.169 949.472 360.482 946.284 349.488C943.096 338.494 951.625 334.302 951.625 334.302L968.161 340.997L969.422 360.138Z" fill="white"/>
<path opacity="0.1" d="M969.422 360.138L967.208 369.169C967.208 369.169 949.472 360.482 946.284 349.488C943.096 338.494 951.625 334.302 951.625 334.302L968.161 340.997L969.422 360.138Z" fill="black"/>
<path d="M894.226 202.315C880.694 197.28 863.286 180.642 867.633 172.867C868.594 170.904 869.167 168.787 869.325 166.624C869.604 163.687 869.645 160.733 869.448 157.79C869.142 152.966 868.537 148.164 867.633 143.409C867.633 143.409 909.88 144.322 907.42 150.28C906.702 152.038 906.579 155.071 906.784 158.457C906.989 161.844 907.492 165.702 908.025 168.951C908.753 173.397 909.501 176.803 909.501 176.803C909.501 176.803 906.907 180.269 905.4 180.455C903.893 180.642 913.643 209.53 894.226 202.315Z" fill="#CF6F80"/>
<path d="M875.363 516.872C874.677 518.499 874.155 520.185 873.805 521.907C872.95 526.625 872.712 531.426 873.097 536.199C873.477 543.071 873.097 589.118 873.097 589.118C873.097 589.118 864.988 601.398 860.457 605.727C855.926 610.056 869.684 617.83 869.684 617.83C871.734 629.03 859.309 641.673 859.309 641.673C846.679 627.047 831.404 645.276 831.404 645.276C831.404 645.276 823.1 631.533 821.029 626.625C818.958 621.717 829.138 618.331 832.716 616.328C836.294 614.326 832.531 602.586 832.531 602.586C832.531 602.586 829.517 592.289 825.929 582.895C822.341 573.501 829.886 526.747 829.886 526.747C829.886 526.747 830.276 518.432 831.209 515.537C831.674 513.446 831.768 511.296 831.486 509.176C831.424 508.459 831.352 507.87 831.301 507.458C831.25 507.046 831.209 506.869 831.209 506.869L831.352 506.633L836.478 497.485C836.478 497.485 877.823 511.11 875.363 516.872Z" fill="#6C63FF"/>
<path d="M953.071 630.649C953.071 630.649 943.844 630.463 938.923 634.576C934.003 638.689 910.219 635.479 911.244 634.576C912.269 633.673 912.177 626.998 912.177 626.998C898.224 608.75 910.126 601.348 910.126 601.348C910.126 601.348 903.904 572.636 902.776 561.986C901.986 554.555 901.013 534.501 900.49 523.144C900.264 518.236 900.131 514.849 900.131 514.849L911.428 512.699L912.894 512.425L940.389 507.134C940.389 507.134 941.148 512.042 941.661 516.057C941.92 517.77 942.06 519.498 942.081 521.23C941.907 523.193 942.081 529.348 942.081 529.348L943.024 547.762C942.416 549.696 942.098 551.702 942.081 553.721C942.276 556.077 945.854 589.658 945.854 589.658C945.854 589.658 952.076 609.702 949.954 611.145C947.832 612.588 953.071 630.649 953.071 630.649Z" fill="#6C63FF"/>
<path opacity="0.1" d="M907.42 150.31C906.702 152.067 906.579 155.1 906.784 158.487C901.125 161.749 894.62 163.418 888.016 163.299C881.411 163.181 874.975 161.282 869.448 157.819C869.142 152.995 868.536 148.193 867.633 143.438C867.633 143.438 909.88 144.351 907.42 150.31Z" fill="black"/>
<path d="M923.73 128.636C923.842 137.542 920.254 146.126 913.755 152.499C907.257 158.872 898.381 162.513 889.08 162.619C879.778 162.726 870.813 159.29 864.157 153.068C857.501 146.846 853.7 138.347 853.588 129.441C853.588 129.166 853.588 128.911 853.588 128.636C853.588 119.727 857.284 111.183 863.863 104.884C870.442 98.5844 879.365 95.0454 888.669 95.0454C897.974 95.0454 906.897 98.5844 913.476 104.884C920.055 111.183 923.751 119.727 923.751 128.636H923.73Z" fill="#CF6F80"/>
<path opacity="0.1" d="M894.226 202.315C880.694 197.28 863.286 180.641 867.633 172.867C868.594 170.904 869.167 168.787 869.325 166.624L887.849 181.211L899.311 190.212L908.025 168.98C908.753 173.427 909.501 176.833 909.501 176.833C909.501 176.833 906.907 180.298 905.4 180.484C903.893 180.671 913.643 209.53 894.226 202.315Z" fill="black"/>
<path d="M942.132 266.778L926.662 515.615L906.487 516.881L854.234 372.595L862.805 201.294L864.619 165.103L887.849 183.37L899.311 192.372L908.281 170.511L924.961 184.43L942.132 266.778Z" fill="#6C63FF"/>
<path opacity="0.1" d="M875.363 516.872C874.677 518.499 874.155 520.185 873.805 521.907C859.11 519.741 844.838 515.476 831.465 509.254L831.188 509.117L831.281 507.537V506.712L836.406 497.563C836.406 497.563 877.823 511.11 875.363 516.872Z" fill="black"/>
<path opacity="0.1" d="M911.767 521.946C908.014 522.561 904.229 522.977 900.428 523.193C900.203 518.285 900.069 514.899 900.069 514.899L911.428 512.7L911.767 521.946Z" fill="black"/>
<path opacity="0.1" d="M941.702 516.057C934.413 517.873 923.146 519.914 913.079 518.638L912.935 512.425L940.43 507.134C940.43 507.134 941.158 512.003 941.702 516.057Z" fill="black"/>
<path opacity="0.1" d="M912.894 519.777C870.862 526.648 832.367 506.947 832.367 506.947L832.736 500.272C832.736 500.272 833.69 424.6 831.045 418.799C828.4 412.998 826.339 383.618 827.836 379.132C829.333 374.646 822.372 306.915 822.372 306.915L821.244 279.43L779.94 263.362L798.393 226.522C800.885 221.358 803.028 216.046 804.811 210.62C808.019 201.049 822.915 191.655 822.915 191.655C822.915 191.655 838.19 182.271 844.228 182.624C850.267 182.978 858.181 174.32 858.181 174.32C864.024 160.057 869.314 166.467 869.314 166.467C869.314 167.154 869.314 166.467 869.027 168.577C866.977 184.234 902.181 233.707 902.684 234.591L906.077 312.785L909.47 411.741L912.894 519.777Z" fill="black"/>
<path d="M911.767 519.777C869.735 526.648 831.229 506.947 831.229 506.947L831.609 500.272C831.609 500.272 832.552 424.6 829.907 418.799C827.262 412.998 825.201 383.589 826.708 379.064C828.215 374.538 821.213 306.876 821.213 306.876L820.075 279.391L778.781 263.322L797.235 226.482C799.721 221.32 801.864 216.012 803.652 210.59C806.861 201.049 821.808 191.645 821.808 191.645C821.808 191.645 837.083 182.261 843.111 182.614C849.139 182.968 857.094 174.32 857.094 174.32C862.948 160.057 869.396 166.467 869.396 166.467C869.396 167.154 868.781 167.449 869.109 168.577C873.62 183.763 901.136 233.707 901.638 234.591L905.031 312.785L908.353 411.79L911.767 519.777Z" fill="white"/>
<path opacity="0.1" d="M900.438 236.799C895.917 234.993 871.969 208.814 871.969 208.814V202.855C871.098 200.892 865.911 202.09 861.718 203.464L863.522 167.272L865.572 168.901C870.052 184.077 899.946 235.926 900.438 236.799Z" fill="black"/>
<path d="M901.576 234.639C897.045 232.823 873.097 206.654 873.097 206.654V200.686C872.226 198.722 867.049 199.92 862.845 201.294L864.619 165.142L866.669 166.761C871.19 181.917 901.074 233.756 901.576 234.639Z" fill="white"/>
<path opacity="0.1" d="M832.367 365.194C832.931 365.194 861.595 362.308 861.595 362.308C861.595 362.308 878.951 394.995 877.813 402.936C876.675 410.878 874.615 417.925 867.633 416.679C860.652 415.432 830.061 417.66 830.061 417.66L832.367 365.194Z" fill="black"/>
<path d="M831.229 363.024C831.803 363.024 860.467 360.138 860.467 360.138C860.467 360.138 877.813 392.875 876.685 400.728C875.558 408.581 873.477 415.717 866.505 414.47C859.534 413.224 828.923 415.452 828.923 415.452L831.229 363.024Z" fill="white"/>
<path d="M852.83 347.721C852.83 347.721 879.136 361.267 879.699 365.39C880.263 369.512 866.311 363.583 863.297 362.857C861.312 362.406 859.293 362.104 857.258 361.954L837.155 362.474L852.83 347.721Z" fill="#CF6F80"/>
<path opacity="0.1" d="M893.088 238.488C894.617 238.488 895.856 237.301 895.856 235.837C895.856 234.374 894.617 233.187 893.088 233.187C891.559 233.187 890.32 234.374 890.32 235.837C890.32 237.301 891.559 238.488 893.088 238.488Z" fill="black"/>
<path d="M893.088 237.408C894.617 237.408 895.856 236.221 895.856 234.757C895.856 233.294 894.617 232.107 893.088 232.107C891.559 232.107 890.32 233.294 890.32 234.757C890.32 236.221 891.559 237.408 893.088 237.408Z" fill="#3F3D56"/>
<path opacity="0.1" d="M898.183 353.218C899.712 353.218 900.951 352.031 900.951 350.567C900.951 349.104 899.712 347.917 898.183 347.917C896.654 347.917 895.415 349.104 895.415 350.567C895.415 352.031 896.654 353.218 898.183 353.218Z" fill="black"/>
<path d="M898.183 352.128C899.712 352.128 900.951 350.942 900.951 349.478C900.951 348.014 899.712 346.828 898.183 346.828C896.654 346.828 895.415 348.014 895.415 349.478C895.415 350.942 896.654 352.128 898.183 352.128Z" fill="#3F3D56"/>
<path opacity="0.1" d="M895.856 295.853C897.385 295.853 898.624 294.666 898.624 293.203C898.624 291.739 897.385 290.552 895.856 290.552C894.327 290.552 893.088 291.739 893.088 293.203C893.088 294.666 894.327 295.853 895.856 295.853Z" fill="black"/>
<path d="M895.856 294.773C897.385 294.773 898.624 293.586 898.624 292.122C898.624 290.659 897.385 289.472 895.856 289.472C894.327 289.472 893.088 290.659 893.088 292.122C893.088 293.586 894.327 294.773 895.856 294.773Z" fill="#3F3D56"/>
<path d="M959.663 361.404C959.663 361.404 961.549 364.114 959.663 365.331C957.776 366.548 959.847 369.67 959.847 369.67C959.847 369.67 955.142 372.3 957.213 374.686C959.283 377.071 957.971 387.78 957.971 387.78L952.312 396.801C952.312 396.801 952.651 402.583 952.671 410.396C952.671 422.588 951.923 439.727 947.781 447.541L948.335 511.649C948.335 511.649 928.518 518.589 911.931 516.469L909.47 413.597C909.47 413.597 913.058 355.26 914.381 344.069C915.155 338.26 915.47 332.403 915.324 326.548C915.324 326.548 914.76 309.036 912.864 300.918C912.864 300.918 910.813 265.698 910.608 255.95C910.516 251.288 910.772 237.683 911.059 224.745C911.377 210.6 911.736 197.26 911.736 197.26L907.994 168.901C907.994 168.901 911.736 168.548 912.864 169.981C913.369 170.433 913.918 170.837 914.504 171.189C920.973 175.37 943.793 188.229 943.793 188.229C943.793 188.229 956.423 193.039 959.447 199.93C962.472 206.821 964.573 211.709 966.039 213.672C967.505 215.636 968.305 224.863 968.305 224.863C968.305 224.863 972.652 241.845 976.045 244.721C979.438 247.597 981.878 265.855 981.878 265.855L951.892 288.432C951.892 288.432 949.257 325.988 948.693 327.441C948.13 328.894 959.663 361.404 959.663 361.404Z" fill="white"/>
<path d="M960.801 361.404C960.801 361.404 962.677 364.114 960.801 365.331C958.925 366.548 960.975 369.67 960.975 369.67C960.975 369.67 956.269 372.3 958.34 374.686C960.411 377.071 959.099 387.78 959.099 387.78L953.46 396.801C953.46 396.801 953.799 402.583 953.83 410.397C953.83 422.588 953.081 439.727 948.94 447.541L949.503 511.649C949.503 511.649 929.687 518.589 913.099 516.469L910.649 413.597C910.649 413.597 914.227 355.26 915.56 344.069C916.335 338.26 916.647 332.402 916.493 326.548C916.493 326.548 915.929 309.036 914.043 300.918C914.043 300.918 911.992 265.698 911.777 255.95C911.685 251.288 911.941 237.683 912.228 224.745C912.546 210.6 912.905 197.26 912.905 197.26L907.963 168.519C907.963 168.519 912.905 168.519 914.043 169.981C914.543 170.438 915.093 170.843 915.683 171.189C922.142 175.37 944.962 188.229 944.962 188.229C944.962 188.229 957.561 193.039 960.637 199.93C963.712 206.821 965.763 211.709 967.229 213.673C968.695 215.636 969.494 224.863 969.494 224.863C969.494 224.863 973.841 241.845 977.234 244.721C980.628 247.597 983.078 265.855 983.078 265.855L953.091 288.432C953.091 288.432 950.457 325.988 949.883 327.441C949.309 328.894 960.801 361.404 960.801 361.404Z" fill="white"/>
<path opacity="0.1" d="M924.889 205.594L927.606 213.152L913.345 226.895C913.663 212.75 914.022 199.41 914.022 199.41L909.081 170.678C909.081 170.678 914.022 170.678 915.16 172.141C915.66 172.598 916.21 173.003 916.8 173.348L928.918 206.811L924.889 205.594Z" fill="black"/>
<path d="M923.73 203.425L926.447 210.973L912.197 224.716C912.505 210.571 912.874 197.231 912.874 197.231L907.922 168.489C907.922 168.489 912.874 168.489 914.002 169.952C914.504 170.406 915.054 170.811 915.642 171.159L927.831 204.652L923.73 203.425Z" fill="white"/>
<path opacity="0.1" d="M923.73 128.636C923.734 132.173 923.153 135.688 922.008 139.051C921.815 139.082 921.618 139.075 921.427 139.031C921.237 138.987 921.058 138.907 920.901 138.796C920.624 129.961 916.093 121.657 910.506 114.599C908.934 112.47 907.033 110.584 904.867 109.004C902.675 107.428 899.949 106.69 897.219 106.933C894.144 107.335 891.427 109.338 888.321 109.593C884.22 109.917 880.55 107.198 876.48 107.07C874.825 107.083 873.192 107.435 871.691 108.102C870.19 108.769 868.855 109.736 867.776 110.938C865.636 113.355 864.048 116.173 863.112 119.213C861.5 123.825 860.622 128.643 860.508 133.505C860.457 136.253 860.18 139.699 857.514 140.7C857.716 138.68 857.477 136.642 856.811 134.716C856.146 132.789 855.069 131.016 853.65 129.51L853.588 129.441C853.588 129.166 853.588 128.911 853.588 128.636C853.588 119.727 857.284 111.183 863.863 104.884C870.442 98.5844 879.365 95.0454 888.669 95.0454C897.974 95.0454 906.897 98.5844 913.476 104.884C920.055 111.183 923.751 119.727 923.751 128.636H923.73Z" fill="black"/>
<path d="M903.227 75.3052C897.9 72.9058 891.841 72.4519 886.188 74.0291C883.349 74.834 880.673 76.1395 877.792 76.7972C871.641 78.2205 864.465 76.6794 859.185 80.1249C856.253 82.0881 854.49 85.1899 852.85 88.2133L848.749 95.6833C846.514 99.7766 844.259 103.939 843.326 108.444C842.393 112.95 842.957 117.995 845.94 121.627C848.103 124.258 851.322 125.917 853.68 128.4C855.097 129.914 856.171 131.693 856.834 133.624C857.498 135.555 857.736 137.596 857.535 139.62C860.2 138.638 860.467 135.173 860.528 132.425C860.644 127.563 861.521 122.745 863.132 118.133C864.068 115.093 865.657 112.275 867.797 109.858C868.875 108.655 870.21 107.687 871.711 107.018C873.212 106.349 874.845 105.995 876.501 105.98C880.601 106.118 884.282 108.837 888.341 108.503C891.417 108.258 894.144 106.255 897.24 105.853C899.97 105.605 902.697 106.344 904.888 107.924C907.055 109.499 908.954 111.386 910.516 113.519C916.113 120.587 920.655 128.852 920.921 137.716C922.08 138.521 923.751 137.461 924.325 136.204C924.899 134.948 924.919 133.475 925.647 132.278C926.488 130.894 928.097 130.148 929.358 129.107C932.557 126.467 933.357 122.02 933.234 117.985C933.111 113.951 932.29 109.858 933.09 105.892C933.572 103.467 934.659 101.18 935.253 98.7754C935.848 96.3705 935.92 93.671 934.515 91.5998C932.465 88.5667 928.149 87.9581 924.386 87.6734C920.111 87.32 916.288 87.7716 913.561 84.3261C912.277 82.5305 910.837 80.8426 909.255 79.2807C908.691 78.7604 903.227 75.5211 903.227 75.3052Z" fill="#512E4E"/>
<path opacity="0.1" d="M791.77 282.306L781.068 263.352L777.674 292.603C777.674 292.603 779.561 305.6 779.181 307.593C778.802 309.585 786.911 327.451 786.911 327.451C786.911 327.451 813.699 373.144 824.637 375.49L861.544 350.204L851.743 338.288C851.743 338.288 848.35 337.021 847.499 338.288C847.499 338.288 829.292 308.309 827.416 306.15C825.539 303.99 825.898 299.642 825.898 299.642C825.898 299.642 823.069 296.756 824.012 294.046C824.955 291.337 818.599 281.953 818.599 281.953L824.443 276.721L791.77 282.306Z" fill="black"/>
<path d="M781.631 261.182L778.802 263.351L775.409 292.603C775.409 292.603 777.295 305.6 776.916 307.593C776.536 309.585 784.656 327.45 784.656 327.45C784.656 327.45 811.433 373.144 822.372 375.49L859.339 350.204L849.529 338.287C849.529 338.287 846.135 337.021 845.284 338.287C845.284 338.287 827.088 308.309 825.201 306.15C823.315 303.99 823.694 299.642 823.694 299.642C823.694 299.642 820.865 296.756 821.808 294.046C822.751 291.337 816.334 281.953 816.334 281.953L822.177 276.721L781.631 261.182Z" fill="white"/>
<path opacity="0.1" d="M957.212 375.814C959.263 378.2 957.971 388.919 957.971 388.919L952.312 397.881C952.312 397.881 952.65 403.672 952.671 411.486L943.157 414.333C942.296 414.59 941.383 414.646 940.495 414.497C939.606 414.347 938.768 413.997 938.05 413.474C937.332 412.952 936.754 412.272 936.366 411.493C935.978 410.713 935.789 409.856 935.817 408.993L937.468 358.342L959.663 366.46C957.776 367.716 959.847 370.798 959.847 370.798C959.847 370.798 955.142 373.429 957.212 375.814Z" fill="black"/>
<path d="M958.34 374.735C960.39 377.11 959.099 387.829 959.099 387.829L953.46 396.801C953.46 396.801 953.799 402.583 953.829 410.397L944.141 413.292C943.3 413.545 942.408 413.601 941.54 413.456C940.671 413.311 939.851 412.969 939.149 412.459C938.446 411.949 937.882 411.285 937.502 410.523C937.122 409.762 936.938 408.924 936.965 408.08L938.616 357.252L960.8 365.39C958.904 366.646 960.975 369.729 960.975 369.729C960.975 369.729 956.269 372.35 958.34 374.735Z" fill="white"/>
<path d="M965.701 350.568C965.701 350.568 964.194 359.785 960.421 360.325C956.649 360.865 954.957 375.236 951.195 374.735C947.432 374.234 949.923 361.365 950.057 358.872C950.19 356.379 945.956 346.052 949.114 343.706C952.271 341.36 962.318 343.706 962.318 343.706L965.701 350.568Z" fill="#CF6F80"/>
<path opacity="0.1" d="M973.677 279.597L980.781 265.855C980.781 265.855 983.621 276.329 983.621 281.924C983.621 287.519 987.578 288.069 987.578 288.069C987.578 288.069 991.914 292.977 989.628 296.56C987.342 300.143 986.43 309.016 986.43 309.016C986.43 309.016 987.178 325.988 983.785 328.334C980.392 330.68 979.633 336.285 979.633 336.285C979.633 336.285 973.41 346.936 973.605 349.468C973.8 352.001 964.932 369.15 964.932 369.15C964.932 369.15 969.268 347.839 943.998 338.631C943.998 338.631 943.803 331.407 945.689 329.424C947.576 327.441 950.518 326.479 948.673 316.506C946.827 306.533 948.14 294.508 948.14 292.103C948.14 289.698 953.799 274.709 953.799 274.709L973.677 279.597Z" fill="black"/>
<path d="M976.834 263.892L983.047 265.855C983.047 265.855 985.887 276.329 985.887 281.924C985.887 287.519 989.844 288.069 989.844 288.069C989.844 288.069 994.18 292.977 991.894 296.56C989.608 300.142 988.685 309.016 988.685 309.016C988.685 309.016 989.444 325.988 986.051 328.334C982.657 330.68 981.95 336.285 981.95 336.285C981.95 336.285 975.727 346.936 975.922 349.468C976.117 352.001 967.239 369.149 967.239 369.149C967.239 369.149 971.575 347.839 946.305 338.631C946.305 338.631 946.12 331.407 948.007 329.424C949.893 327.441 952.835 326.479 950.99 316.506C949.144 306.533 950.457 294.508 950.457 292.103C950.457 289.698 956.116 274.709 956.116 274.709L976.834 263.892Z" fill="white"/>
<g opacity="0.1">
<path opacity="0.1" d="M929.359 126.947C928.098 127.998 926.478 128.734 925.637 130.118C924.92 131.306 924.899 132.778 924.325 134.044C923.751 135.311 922.08 136.361 920.911 135.556C920.645 126.722 916.103 118.427 910.516 111.359C908.954 109.229 907.055 107.345 904.888 105.774C902.695 104.191 899.964 103.449 897.23 103.693C894.154 104.096 891.448 106.098 888.341 106.353C884.241 106.677 880.56 103.958 876.491 103.831C874.837 103.843 873.205 104.194 871.706 104.861C870.206 105.528 868.873 106.496 867.797 107.698C865.657 110.115 864.068 112.934 863.133 115.973C861.522 120.585 860.644 125.403 860.529 130.265C860.467 133.004 860.201 136.42 857.556 137.441C857.617 138.169 857.617 138.901 857.556 139.63C860.231 138.648 860.498 135.183 860.559 132.435C860.675 127.572 861.552 122.755 863.163 118.142C864.099 115.103 865.688 112.284 867.828 109.867C868.905 108.665 870.237 107.697 871.737 107.029C873.236 106.36 874.867 106.006 876.521 105.99C880.622 106.127 884.313 108.847 888.372 108.513C891.448 108.267 894.175 106.265 897.26 105.862C899.993 105.615 902.724 106.354 904.919 107.934C907.086 109.508 908.985 111.396 910.547 113.529C916.134 120.596 920.675 128.862 920.942 137.725C922.111 138.53 923.782 137.47 924.356 136.214C924.93 134.957 924.95 133.485 925.668 132.287C926.509 130.903 928.128 130.157 929.389 129.117C932.588 126.476 933.387 122.03 933.264 117.995C933.264 117.867 933.264 117.75 933.264 117.622C933.059 121.136 932.086 124.699 929.359 126.947Z" fill="black"/>
<path opacity="0.1" d="M853.67 126.26C851.322 123.777 848.103 122.108 845.94 119.477C844.113 117.155 843.072 114.353 842.957 111.448C842.635 115.081 843.695 118.702 845.94 121.647C848.103 124.277 851.322 125.936 853.67 128.42C855.938 130.848 857.301 133.927 857.545 137.176C857.699 135.2 857.436 133.215 856.77 131.34C856.104 129.464 855.05 127.737 853.67 126.26Z" fill="black"/>
<path opacity="0.1" d="M935.253 96.6157C934.648 99.0206 933.572 101.308 933.08 103.732C932.784 105.372 932.678 107.037 932.762 108.699C932.796 107.761 932.902 106.825 933.08 105.902C933.572 103.477 934.648 101.19 935.253 98.785C935.601 97.4578 935.715 96.0844 935.592 94.7212C935.525 95.3595 935.412 95.9926 935.253 96.6157Z" fill="black"/>
</g>
<path d="M139.29 342.793H132.862V481.367H139.29V342.793Z" fill="#535461"/>
<path d="M179.692 480.955L179.282 487.198L178.718 496.032L178.482 499.703L177.908 508.538L177.662 512.209L177.098 521.043L170.609 621.236C170.332 625.547 168.349 629.594 165.062 632.553C161.776 635.512 157.435 637.158 152.925 637.158H119.227C114.704 637.16 110.352 635.504 107.064 632.531C103.775 629.557 101.8 625.491 101.543 621.167L95.0538 520.975L94.49 512.14L94.2542 508.469L93.6698 499.635L93.4341 495.963L92.8702 487.129L92.4601 480.886C92.3892 479.689 92.5733 478.491 93.0012 477.365C93.4292 476.239 94.092 475.207 94.9494 474.334C95.8067 473.461 96.8407 472.764 97.9884 472.285C99.1361 471.807 100.373 471.557 101.625 471.551H170.537C171.794 471.558 173.037 471.81 174.189 472.294C175.34 472.777 176.376 473.481 177.234 474.361C178.091 475.242 178.751 476.281 179.174 477.415C179.597 478.549 179.773 479.753 179.692 480.955Z" fill="#3F3D56"/>
<path d="M179.282 487.188L178.708 496.002H93.4341L92.86 487.188H179.282Z" fill="#9D9CB5"/>
<path d="M178.472 499.674L177.908 508.489H94.244L93.6699 499.674H178.472Z" fill="#9D9CB5"/>
<path d="M177.662 512.169L177.098 520.974H95.0538L94.4797 512.169H177.662Z" fill="#9D9CB5"/>
<path d="M83.0901 394.74C120.529 420.674 136.122 461.234 136.122 461.234C136.122 461.234 91.0147 459.752 53.5652 433.818C16.1157 407.884 0.502319 367.353 0.502319 367.353C0.502319 367.353 45.6098 368.806 83.0901 394.74Z" fill="#6C63FF"/>
<path d="M0.502319 367.353C0.502319 367.353 47.3219 392.237 62.3406 412.841C77.3594 433.445 136.081 461.254 136.081 461.254" stroke="#535461" stroke-width="2" stroke-miterlimit="10"/>
<path d="M107.212 342.499C127.593 356.604 136.081 378.681 136.081 378.681C136.081 378.681 111.477 377.876 91.148 363.77C70.8189 349.664 62.2792 327.578 62.2792 327.578C62.2792 327.578 86.8423 328.383 107.212 342.499Z" fill="#6C63FF"/>
<path d="M62.2792 327.578C62.2792 327.578 87.7649 341.124 95.9458 352.334C104.127 363.544 136.081 378.681 136.081 378.681" stroke="#535461" stroke-width="2" stroke-miterlimit="10"/>
<path d="M165.688 377.562C142.283 402.191 137.332 434.378 137.332 434.378C137.332 434.378 170.332 426.623 193.716 401.984C217.1 377.346 222.073 345.169 222.073 345.169C222.073 345.169 189.093 352.933 165.688 377.562Z" fill="#6C63FF"/>
<path d="M222.093 345.179C222.093 345.179 191.604 370.426 183.854 387.82C176.104 405.214 137.332 434.378 137.332 434.378" stroke="#535461" stroke-width="2" stroke-miterlimit="10"/>
</g>
<defs>
<linearGradient id="paint0_linear_20_2" x1="477.248" y1="649.192" x2="477.248" y2="82.1665" gradientUnits="userSpaceOnUse">
<stop stop-color="#808080" stop-opacity="0.25"/>
<stop offset="0.54" stop-color="#808080" stop-opacity="0.12"/>
<stop offset="1" stop-color="#808080" stop-opacity="0.1"/>
</linearGradient>
<linearGradient id="paint1_linear_20_2" x1="195069" y1="531224" x2="195069" y2="159565" gradientUnits="userSpaceOnUse">
<stop stop-color="#808080" stop-opacity="0.25"/>
<stop offset="0.54" stop-color="#808080" stop-opacity="0.12"/>
<stop offset="1" stop-color="#808080" stop-opacity="0.1"/>
</linearGradient>
<clipPath id="clip0_20_2">
<rect width="1197" height="847" fill="white" transform="translate(0 -171)"/>
</clipPath>
</defs>
</svg>
